# xmcd CD database file
#
# Track frame offsets:
#	150
#	8418
#	31197
#	40537
#	62472
#	102410
#	123525
#	141967
#	163625
#	186446
#	204378
#	216503
#	237913
#	258628
#	270584
#	288587
#
# Disc length: 3994 seconds
#
# Revision: 0
# Processed by: cddbd v1.5.2PL0 Copyright (c) Steve Scherf et al.
# Submitted via: CDex 1.51
#
DISCID=e80f9810
DTITLE=Butch Meier - live at bimbotown
DYEAR=1900
DGENRE=Country
TTITLE0=Fire Meier
TTITLE1=You Can Win
TTITLE2=Breaking Law
TTITLE3=Stuntman
TTITLE4=Dancing
TTITLE5=Skymarshall
TTITLE6=Barjoke
TTITLE7=Rebel Song
TTITLE8=Freedom
TTITLE9=Run To The Hills
TTITLE10=Wasted
TTITLE11=Midnight Lady
TTITLE12=All She Wants
TTITLE13=Rostock Was Yesterday
TTITLE14=Ring Of Meier
TTITLE15=Misunderstood/Countryroad
EXTD=
EXTT0=
EXTT1=
EXTT2=
EXTT3=
EXTT4=
EXTT5=
EXTT6=
EXTT7=
EXTT8=
EXTT9=
EXTT10=
EXTT11=
EXTT12=
EXTT13=
EXTT14=
EXTT15=
PLAYORDER=
